# xmcd CD database file
#
# Track frame offsets:
#	187
#	10130
#	22017
#	30977
#
# Disc length: 551 seconds
#
# Revision: 5
# Processed by: cddbd v1.5PL3 Copyright (c) Steve Scherf et al.
# Submitted via: CDex 1.40Beta9
#
DISCID=21022504
DTITLE=東京ビートルズ - meet the 東京ビートルズ
DYEAR=1900
DGENRE=Rock
TTITLE0=抱きしめたい
TTITLE1=プリーズ・プリーズ・ミー
TTITLE2=キャント・バイミー・ラブ
TTITLE3=ツイスト・アンド・シャウト
EXTD=ID3G: 17
EXTT0=
EXTT1=
EXTT2=
EXTT3=
PLAYORDER=
